#!OML:ASF E:\motion texture\Top Level 1\Subject 1\Session 1\male.ASF
:FULLY-SPECIFIED
:DEGREES
119
root 37.398 16.362 5.00164 94.4049 -84.2879 -84.2172
lowerback 21.0616 -0.623941 -1.64374
upperback 5.06385 -1.45942 0.366474
thorax -6.2041 -0.82364 1.72344
lowerneck -16.9653 -1.48999 -7.25092
upperneck 1.70493 -1.80262 14.9289
head 3.50946 -0.321992 5.70706
rclavicle -3.4191e-014 -4.69132e-014
rhumerus 22.1927 23.0301 -70.4409
rradius 79.327
rwrist 17.918
rhand -30.1273 -25.5521
rfingers 7.12502
rthumb -3.44038 -55.5041
lclavicle -3.4191e-014 -4.69132e-014
lhumerus 28.8222 -36.1409 96.3672
lradius 57.2634
lwrist 31.2663
lhand -1.39138 35.7589
lfingers 7.12502
lthumb 24.257 64.2444
rfemur -48.2158 -24.0271 28.0007
rtibia 59.9025
rfoot -10.6944 -23.4185
rtoes 3.76879
lfemur -44.4162 18.1704 -11.0775
ltibia 53.3843
lfoot -21.7103 -4.43511
ltoes -24.07
120
root 37.3091 16.3431 5.00727 94.9695 -84.4922 -84.5343
lowerback 21.5263 -0.708954 -1.63022
upperback 5.22229 -1.58484 0.441151
thorax -6.26764 -0.891554 1.83868
lowerneck -16.8547 -1.45492 -7.2624
upperneck 1.28148 -1.71974 14.9051
head 3.35486 -0.302695 5.70316
rclavicle -3.97569e-015 -7.95139e-015
rhumerus 22.9764 22.8143 -69.8626
rradius 79.4635
rwrist 18.0481
rhand -30.0433 -25.495
rfingers 7.12502
rthumb -3.35924 -55.4483
lclavicle -3.97569e-015 -7.95139e-015
lhumerus 29.8546 -36.3098 96.0251
lradius 57.3008
lwrist 31.6248
lhand -1.23553 35.7124
lfingers 7.12502
lthumb 24.4064 64.1779
rfemur -49.4167 -24.092 27.879
rtibia 58.9212
rfoot -10.1391 -23.163
rtoes 4.05784
lfemur -44.5983 18.4434 -11.4314
ltibia 53.8546
lfoot -22.1081 -4.36194
ltoes -23.846
121
root 37.2185 16.3238 5.0127 95.8279 -84.7075 -85.1368
lowerback 21.9752 -0.79469 -1.60799
upperback 5.3742 -1.7085 0.515464
thorax -6.32867 -0.958583 1.94925
lowerneck -16.7495 -1.4164 -7.27079
upperneck 0.869569 -1.63371 14.8721
head 3.20425 -0.281635 5.69634
rclavicle -1.98785e-015 -7.95139e-016
rhumerus 23.7848 22.5805 -69.2728
rradius 79.6029
rwrist 18.1715
rhand -29.9424 -25.4267
rfingers 7.12502
rthumb -3.26185 -55.3815
lclavicle -1.98785e-015 -7.95139e-016
lhumerus 30.8708 -36.4371 95.6702
lradius 57.3461
lwrist 31.9236
lhand -1.09226 35.653
lfingers 7.12502
lthumb 24.5438 64.1
rfemur -50.564 -24.114 27.7236
rtibia 57.8658
rfoot -9.54644 -22.8864
rtoes 4.31954
lfemur -44.7688 18.689 -11.7885
ltibia 54.3114
lfoot -22.4944 -4.25877
ltoes -23.5948
122
root 37.126 16.3044 5.01781 97.0293 -84.9349 -86.076
lowerback 22.4104 -0.88042 -1.58186
upperback 5.51908 -1.83046 0.589315
thorax -6.38895 -1.02465 2.05778
lowerneck -16.6444 -1.37234 -7.2731
upperneck 0.464948 -1.54198 14.8269
head 3.05512 -0.257937 5.68523
rclavicle 1.98785e-015 -1.27222e-014
rhumerus 24.6156 22.3294 -68.6717
rradius 79.7459
rwrist 18.2866
rhand -29.8222 -25.3442
rfingers 7.12502
rthumb -3.14571 -55.3008
lclavicle 1.98785e-015 -1.27222e-014
lhumerus 31.8695 -36.5219 95.3038
lradius 57.3996
lwrist 32.1677
lhand -0.963806 35.5787
lfingers 7.12502
lthumb 24.6669 64.0089
rfemur -51.6527 -24.0943 27.5299
rtibia 56.7407
rfoot -8.92293 -22.6006
rtoes 4.56204
lfemur -44.9239 18.909 -12.1504
ltibia 54.7533
lfoot -22.8722 -4.12347
ltoes -23.323
123
root 37.0314 16.2846 5.02262 98.6451 -85.1722 -87.423
lowerback 22.8308 -0.966407 -1.55119
upperback 5.65712 -1.95085 0.662635
thorax -6.44773 -1.08983 2.16375
lowerneck -16.5453 -1.32471 -7.27127
upperneck 0.0730084 -1.4472 14.7705
head 2.91033 -0.232458 5.6703
rclavicle 2.18663e-014 1.82882e-014
rhumerus 25.4721 22.0628 -68.0585
rradius 79.8908
rwrist 18.391
rhand -29.6876 -25.2557
rfingers 7.12502
rthumb -3.01576 -55.2141
lclavicle 2.18663e-014 1.82882e-014
lhumerus 32.8516 -36.5629 94.9277
lradius 57.4613
lwrist 32.3614
lhand -0.847081 35.4983
lfingers 7.12502
lthumb 24.7788 63.9131
rfemur -52.6832 -24.0342 27.2976
rtibia 55.5526
rfoot -8.27531 -22.3151
rtoes 4.78894
lfemur -45.0635 19.1052 -12.5165
ltibia 55.1809
lfoot -23.2471 -3.95226
ltoes -23.0409
124
root 36.9346 16.2646 5.02712 100.738 -85.4168 -89.2426
lowerback 23.2375 -1.05323 -1.51567
upperback 5.7882 -2.07033 0.735161
thorax -6.50592 -1.15441 2.26681
lowerneck -16.4467 -1.27247 -7.26586
upperneck -0.309961 -1.34788 14.7042
head 2.76778 -0.204677 5.65212
rclavicle -1.98785e-014 -1.43125e-014
rhumerus 26.3541 21.7819 -67.4354
rradius 80.0366
rwrist 18.4839
rhand -29.539 -25.1596
rfingers 7.12502
rthumb -2.87229 -55.12
lclavicle -1.98785e-014 -1.43125e-014
lhumerus 33.8143 -36.5593 94.545
lradius 57.5306
lwrist 32.5056
lhand -0.764366 35.3813
lfingers 7.12502
lthumb 24.858 63.7852
rfemur -53.6522 -23.9366 27.0258
rtibia 54.3063
rfoot -7.61434 -22.0382
rtoes 5.01705
lfemur -45.1849 19.2791 -12.8863
ltibia 55.5933
lfoot -23.6178 -3.74913
ltoes -22.7507
125
root 36.8355 16.2444 5.03128 103.418 -85.6635 -91.6446
lowerback 23.6316 -1.14048 -1.47486
upperback 5.91255 -2.18823 0.807429
thorax -6.56399 -1.21807 2.36708
lowerneck -16.354 -1.21662 -7.25576
upperneck -0.679339 -1.24562 14.6252
head 2.62981 -0.175105 5.62951
rclavicle -1.47101e-014 2.38542e-015
rhumerus 27.2647 21.4876 -66.8019
rradius 80.1814
rwrist 18.5654
rhand -29.3772 -25.058
rfingers 7.12502
rthumb -2.71595 -55.0205
lclavicle -1.47101e-014 2.38542e-015
lhumerus 34.7595 -36.511 94.1574
lradius 57.6068
lwrist 32.6052
lhand -0.700657 35.2543
lfingers 7.12502
lthumb 24.9191 63.6498
rfemur -54.5591 -23.802 26.7156
rtibia 53.0084
rfoot -6.94026 -21.7779
rtoes 5.20128
lfemur -45.2858 19.4331 -13.2579
ltibia 55.9901
lfoot -23.9853 -3.51552
ltoes -22.4485
126
root 36.734 16.224 5.0351 106.772 -85.9079 -94.7177
lowerback 24.0128 -1.22913 -1.42819
upperback 6.03014 -2.30563 0.878822
thorax -6.62198 -1.28131 2.46379
lowerneck -16.2642 -1.15605 -7.24241
upperneck -1.03793 -1.1388 14.5363
head 2.49497 -0.143008 5.60365
rclavicle 3.97569e-015 5.80451e-014
rhumerus 28.2024 21.1806 -66.16
rradius 80.3235
rwrist 18.6358
rhand -29.2163 -24.9537
rfingers 7.12502
rthumb -2.56065 -54.9181
lclavicle 3.97569e-015 5.80451e-014
lhumerus 35.6853 -36.4186 93.7667
lradius 57.6893
lwrist 32.6643
lhand -0.663944 35.1124
lfingers 7.12502
lthumb 24.9543 63.503
rfemur -55.4041 -23.6326 26.3656
rtibia 51.665
rfoot -6.26803 -21.5428
rtoes 5.38555
lfemur -45.3661 19.5666 -13.6319
ltibia 56.3718
lfoot -24.3482 -3.2537
ltoes -22.1344
127
root 36.63 16.2035 5.03853 110.943 -86.143 -98.6033
lowerback 24.3808 -1.32066 -1.37164
upperback 6.14074 -2.4237 0.94513
thorax -6.68033 -1.3447 2.55028
lowerneck -16.1801 -1.09069 -7.22067
upperneck -1.38287 -1.02853 14.4374
head 2.3647 -0.108767 5.57359
rclavicle -2.90226e-014 1.43125e-014
rhumerus 29.1675 20.8611 -65.5184
rradius 80.4616
rwrist 18.6944
rhand -29.0572 -24.8534
rfingers 7.12502
rthumb -2.40698 -54.8196
lclavicle -2.90226e-014 1.43125e-014
lhumerus 36.593 -36.2831 93.3701
lradius 57.7775
lwrist 32.6899
lhand -0.639949 34.9786
lfingers 7.12502
lthumb 24.9773 63.366
rfemur -56.1878 -23.4293 25.9761
rtibia 50.2821
rfoot -5.59683 -21.3363
rtoes 5.54471
lfemur -45.4248 19.6822 -14.0088
ltibia 56.7375
lfoot -24.7112 -2.96254
ltoes -21.8166
128
root 36.5232 16.1827 5.04161 116.052 -86.3588 -103.424
lowerback 24.7371 -1.41379 -1.30679
upperback 6.2439 -2.54089 1.00889
thorax -6.74048 -1.40743 2.62982
lowerneck -16.102 -1.02243 -7.19322
upperneck -1.71235 -0.916884 14.3283
head 2.23978 -0.0732978 5.53954
rclavicle 2.38542e-014 0
rhumerus 30.1583 20.5286 -64.8746
rradius 80.5938
rwrist 18.7421
rhand -28.9028 -24.7521
rfingers 7.12502
rthumb -2.25783 -54.7199
lclavicle 2.38542e-014 0
lhumerus 37.4829 -36.1045 92.9752
lradius 57.8684
lwrist 32.6882
lhand -0.643324 34.8421
lfingers 7.12502
lthumb 24.974 63.2299
rfemur -56.9107 -23.1942 25.5483
rtibia 48.8661
rfoot -4.93974 -21.1645
rtoes 5.69468
lfemur -45.4599 19.7805 -14.3873
ltibia 57.0862
lfoot -25.0772 -2.64253
ltoes -21.4869
129
root 36.4138 16.162 5.04425 122.204 -86.5432 -109.284
lowerback 25.0824 -1.50765 -1.2367
upperback 6.34025 -2.65668 1.07196
thorax -6.80192 -1.46924 2.70595
lowerneck -16.0333 -0.950795 -7.15977
upperneck -2.02678 -0.803012 14.2058
head 2.12048 -0.0361597 5.50055
rclavicle -3.33958e-014 -4.92986e-014
rhumerus 31.1781 20.1842 -64.2267
rradius 80.7175
rwrist 18.7798
rhand -28.7603 -24.6536
rfingers 7.12502
rthumb -2.12022 -54.6228
lclavicle -3.33958e-014 -4.92986e-014
lhumerus 38.3531 -35.8813 92.59
lradius 57.9622
lwrist 32.6622
lhand -0.661904 34.7179
lfingers 7.12502
lthumb 24.9562 63.1082
rfemur -57.5745 -22.9282 25.0829
rtibia 47.4229
rfoot -4.29993 -21.0296
rtoes 5.82506
lfemur -45.4711 19.8641 -14.7685
ltibia 57.4166
lfoot -25.4448 -2.29608
ltoes -21.1539
130
root 36.3016 16.1412 5.04642 129.45 -86.6814 -116.233
lowerback 25.4148 -1.60215 -1.16332
upperback 6.42865 -2.7712 1.13509
thorax -6.86508 -1.53012 2.78059
lowerneck -15.9703 -0.875706 -7.12356
upperneck -2.32616 -0.686358 14.0716
head 2.00624 0.00292034 5.45766
rclavicle -2.78299e-015 -1.55052e-014
rhumerus 32.2275 19.8315 -63.5753
rradius 80.8313
rwrist 18.8036
rhand -28.6283 -24.562
rfingers 7.12502
rthumb -1.99274 -54.5324
lclavicle -2.78299e-015 -1.55052e-014
lhumerus 39.2061 -35.6121 92.2146
lradius 58.0564
lwrist 32.6176
lhand -0.705492 34.602
lfingers 7.12502
lthumb 24.9145 62.9981
rfemur -58.1841 -22.6318 24.5817
rtibia 45.9602
rfoot -3.68017 -20.9314
rtoes 5.92523
lfemur -45.4595 19.9352 -15.1533
ltibia 57.7275
lfoot -25.8159 -1.925
ltoes -20.8188
131
root 36.1864 16.1205 5.04809 137.679 -86.7561 -124.162
lowerback 25.7367 -1.69658 -1.08592
upperback 6.50999 -2.88355 1.19742
thorax -6.93032 -1.58965 2.85211
lowerneck -15.9183 -0.798157 -7.08317
upperneck -2.60943 -0.56858 13.9265
head 1.89838 0.0433114 5.41084
rclavicle 1.43125e-014 3.02153e-014
rhumerus 33.3051 19.4681 -62.9237
rradius 80.9323
rwrist 18.8173
rhand -28.5035 -24.4755
rfingers 7.12502
rthumb -1.87216 -54.4471
lclavicle 1.43125e-014 3.02153e-014
lhumerus 40.0414 -35.3 91.8529
lradius 58.1504
lwrist 32.558
lhand -0.793841 34.4802
lfingers 7.12502
lthumb 24.8298 62.888
rfemur -58.7411 -22.3063 24.0463
rtibia 44.4856
rfoot -3.0863 -20.8698
rtoes 5.99016
lfemur -45.4228 19.9964 -15.5414
ltibia 58.0179
lfoot -26.1913 -1.52928
ltoes -20.4928
132
root 36.0683 16.0999 5.04927 146.596 -86.7517 -132.772
lowerback 26.0459 -1.79155 -1.00537
upperback 6.58326 -2.99452 1.25915
thorax -6.99766 -1.64815 2.92133
lowerneck -15.8724 -0.716918 -7.03941
upperneck -2.87922 -0.44771 13.7691
head 1.79514 0.0857494 5.3598
rclavicle 3.97569e-015 -6.75868e-015
rhumerus 34.4117 19.0979 -62.2723
rradius 81.0174
rwrist 18.8213
rhand -28.3916 -24.3924
rfingers 7.12502
rthumb -1.76414 -54.3648
lclavicle 3.97569e-015 -6.75868e-015
lhumerus 40.8563 -34.9422 91.5114
lradius 58.2413
lwrist 32.4794
lhand -0.889668 34.3936
lfingers 7.12502
lthumb 24.738 62.814
rfemur -59.2523 -21.9533 23.479
rtibia 43.0075
rfoot -2.52654 -20.8453
rtoes 6.02322
lfemur -45.364 20.0485 -15.9357
ltibia 58.2872
lfoot -26.5703 -1.10826
ltoes -20.1856
